<?xml version="1.0" standalone="no"?><!DOCTYPE svg PUBLIC "-//W3C//DTD SVG 1.1//EN" "http://www.w3.org/Graphics/SVG/1.1/DTD/svg11.dtd"><svg t="1597816759691" class="icon" viewBox="0 0 1024 1024" version="1.1" xmlns="http://www.w3.org/2000/svg" p-id="6068" xmlns:xlink="http://www.w3.org/1999/xlink" width="200" height="200"><defs><style type="text/css"></style></defs><path d="M221.8 227.7V848c0 30.9 25.1 56 56 56h532c30.9 0 56-25.1 56-56V227.7h-644z" fill="#FEF8E6" p-id="6069"></path><path d="M809.9 120h-532c-30.9 0-56 25.1-56 56v84h644v-84c0-30.9-25.1-56-56-56z" fill="#F77490" p-id="6070"></path><path d="M242.1 794.2c15.5 0 28-12.5 28-28s-12.5-28-28-28h-56c-15.5 0-28 12.5-28 28s12.5 28 28 28h56zM242.1 374.2c15.5 0 28-12.5 28-28s-12.5-28-28-28h-56c-15.5 0-28 12.5-28 28s12.5 28 28 28h56zM242.1 654.2c15.5 0 28-12.5 28-28s-12.5-28-28-28h-56c-15.5 0-28 12.5-28 28s12.5 28 28 28h56zM242.1 514.2c15.5 0 28-12.5 28-28s-12.5-28-28-28h-56c-15.5 0-28 12.5-28 28s12.5 28 28 28h56z" fill="#8ADCFF" p-id="6071"></path><path d="M697.9 695.4h-308c-6.2 0-11.3-5.1-11.3-11.3V344.3c0-6.2 5.1-11.3 11.3-11.3h308c6.2 0 11.3 5.1 11.3 11.3v339.8c0 6.2-5.1 11.3-11.3 11.3z" fill="#BD9EE2" p-id="6072"></path><path d="M865.8 227.7V848c0 30.9-25.1 56-56 56h-60c30.9 0 56-25.1 56-56V227.7h60z" fill="#FCEFAD" p-id="6073"></path><path d="M865.8 176v84h-60v-84c0-30.9-25.1-56-56-56h60c31 0 56 25.1 56 56z" fill="#F65D73" p-id="6074"></path><path d="M270.2 766.2c0 15.5-12.5 28-28 28h-40c15.5 0 28-12.5 28-28s-12.5-28-28-28h40c15.4 0 28 12.5 28 28zM270.2 346.2c0 15.5-12.5 28-28 28h-40c15.5 0 28-12.5 28-28s-12.5-28-28-28h40c15.4 0 28 12.5 28 28zM270.2 626.2c0 15.5-12.5 28-28 28h-40c15.5 0 28-12.5 28-28s-12.5-28-28-28h40c15.4 0 28 12.5 28 28zM270.2 486.2c0 15.5-12.5 28-28 28h-40c15.5 0 28-12.5 28-28s-12.5-28-28-28h40c15.4 0 28 12.5 28 28z" fill="#46CDFB" p-id="6075"></path><path d="M709.2 344.2V684c0 6.2-5.1 11.3-11.3 11.3h-60c6.2 0 11.3-5.1 11.3-11.3V344.2c0-6.2-5.1-11.3-11.3-11.3h60c6.2 0 11.3 5.1 11.3 11.3z" fill="#978CDB" p-id="6076"></path></svg>