<?xml version="1.0" standalone="no"?><!DOCTYPE svg PUBLIC "-//W3C//DTD SVG 1.1//EN" "http://www.w3.org/Graphics/SVG/1.1/DTD/svg11.dtd"><svg t="1597816775209" class="icon" viewBox="0 0 1024 1024" version="1.1" xmlns="http://www.w3.org/2000/svg" p-id="6205" xmlns:xlink="http://www.w3.org/1999/xlink" width="200" height="200"><defs><style type="text/css"></style></defs><path d="M496.3 385.3v185c0 37.1-30.1 67.2-67.2 67.2H92c18.5-0.1 35.2-7.6 47.2-19.7 12.1-12.1 19.7-28.9 19.7-47.5v-185c0-20.2 16.3-36.5 36.5-36.5h264.4c20.2 0 36.5 16.4 36.5 36.5z" fill="#FDF17F" p-id="6206"></path><path d="M412.7 447.2H244.9c-10.4 0-19-8.5-19-19 0-10.4 8.5-19 19-19h167.8c10.4 0 19 8.5 19 19 0 10.4-8.6 19-19 19zM412.7 519.5H244.9c-10.4 0-19-8.5-19-19 0-10.4 8.5-19 19-19h167.8c10.4 0 19 8.5 19 19 0 10.4-8.6 19-19 19z" fill="#46CDFB" p-id="6207"></path><path d="M386.1 513.9c3.4-3.4 5.6-8.2 5.6-13.4 0-10.4-8.5-19-19-19h40c10.4 0 19 8.5 19 19 0 5.2-2.1 10-5.6 13.4-3.5 3.4-8.2 5.6-13.4 5.6h-40c5.2 0 10-2.2 13.4-5.6zM386.1 441.6c3.4-3.4 5.6-8.2 5.6-13.4 0-10.4-8.5-19-19-19h40c10.4 0 19 8.5 19 19 0 5.2-2.1 10-5.6 13.4s-8.2 5.6-13.4 5.6h-40c5.2 0 10-2.1 13.4-5.6z" fill="#FDF17F" p-id="6208"></path><path d="M496.3 385.3v185c0 37.1-30.1 67.2-67.2 67.2h-40c37.1 0 67.2-30.1 67.2-67.2v-185c0-20.2-16.3-36.5-36.5-36.5h40c20.2 0 36.5 16.4 36.5 36.5z" fill="#FAD672" p-id="6209"></path><path d="M431.7 428.2c0 5.2-2.1 10-5.6 13.4s-8.2 5.6-13.4 5.6h-40c5.2 0 10-2.1 13.4-5.6s5.6-8.2 5.6-13.4c0-10.4-8.5-19-19-19h40c10.4 0 19 8.6 19 19zM431.7 500.5c0 5.2-2.1 10-5.6 13.4s-8.2 5.6-13.4 5.6h-40c5.2 0 10-2.1 13.4-5.6s5.6-8.2 5.6-13.4c0-10.4-8.5-19-19-19h40c10.4 0 19 8.5 19 19z" fill="#46CDFB" p-id="6210"></path><path d="M431.7 500.5c0 5.2-2.1 10-5.6 13.4s-8.2 5.6-13.4 5.6h-40c5.2 0 10-2.1 13.4-5.6s5.6-8.2 5.6-13.4c0-10.4-8.5-19-19-19h40c10.4 0 19 8.5 19 19zM386.1 441.6c3.4-3.4 5.6-8.2 5.6-13.4 0-10.4-8.5-19-19-19h40c10.4 0 19 8.5 19 19 0 5.2-2.1 10-5.6 13.4s-8.2 5.6-13.4 5.6h-40c5.2 0 10-2.1 13.4-5.6z" fill="#15B7FF" p-id="6211"></path><path d="M932 229.2v185c0 37.1-30.1 67.2-67.2 67.2H527.7c18.5-0.1 35.2-7.6 47.2-19.7 12.1-12.1 19.7-28.9 19.7-47.5v-185c0-20.2 16.3-36.5 36.5-36.5h264.4c20.2 0 36.5 16.4 36.5 36.5z" fill="#50E6CC" p-id="6212"></path><path d="M841.1 293.5H673.3c-10.4 0-19-8.5-19-19 0-10.4 8.5-19 19-19h167.8c10.4 0 19 8.5 19 19 0 10.4-8.5 19-19 19zM841.1 365.7H673.3c-10.4 0-19-8.5-19-19 0-10.4 8.5-19 19-19h167.8c10.4 0 19 8.5 19 19s-8.5 19-19 19z" fill="#FDF17F" p-id="6213"></path><path d="M814.5 360.2c3.4-3.4 5.6-8.2 5.6-13.4 0-10.4-8.5-19-19-19h40c10.4 0 19 8.5 19 19 0 5.2-2.1 10-5.6 13.4-3.4 3.4-8.2 5.6-13.4 5.6h-40c5.2-0.1 10-2.2 13.4-5.6zM814.5 287.9c3.4-3.4 5.6-8.2 5.6-13.4 0-10.4-8.5-19-19-19h40c10.4 0 19 8.5 19 19 0 5.2-2.1 10-5.6 13.4s-8.2 5.6-13.4 5.6h-40c5.2 0 10-2.2 13.4-5.6z" fill="#50E6CC" p-id="6214"></path><path d="M932 229.2v185c0 37.1-30.1 67.2-67.2 67.2h-40c37.1 0 67.2-30.1 67.2-67.2v-185c0-20.2-16.3-36.5-36.5-36.5h40c20.2 0 36.5 16.4 36.5 36.5z" fill="#45DABD" p-id="6215"></path><path d="M860.1 274.5c0 5.2-2.1 10-5.6 13.4s-8.2 5.6-13.4 5.6h-40c5.2 0 10-2.1 13.4-5.6s5.6-8.2 5.6-13.4c0-10.4-8.5-19-19-19h40c10.5 0 19 8.5 19 19zM860.1 346.8c0 5.2-2.1 10-5.6 13.4-3.4 3.4-8.2 5.6-13.4 5.6h-40c5.2 0 10-2.1 13.4-5.6 3.4-3.4 5.6-8.2 5.6-13.4 0-10.4-8.5-19-19-19h40c10.5 0 19 8.5 19 19z" fill="#FDF17F" p-id="6216"></path><path d="M860.1 346.8c0 5.2-2.1 10-5.6 13.4-3.4 3.4-8.2 5.6-13.4 5.6h-40c5.2 0 10-2.1 13.4-5.6 3.4-3.4 5.6-8.2 5.6-13.4 0-10.4-8.5-19-19-19h40c10.5 0 19 8.5 19 19zM814.5 287.9c3.4-3.4 5.6-8.2 5.6-13.4 0-10.4-8.5-19-19-19h40c10.4 0 19 8.5 19 19 0 5.2-2.1 10-5.6 13.4s-8.2 5.6-13.4 5.6h-40c5.2 0 10-2.2 13.4-5.6z" fill="#FAD672" p-id="6217"></path><path d="M659.4 579v185c0 37.1-30.1 67.2-67.2 67.2H255.1c18.5-0.1 35.2-7.6 47.2-19.7 12.1-12.1 19.7-28.9 19.7-47.5V579c0-20.2 16.3-36.5 36.5-36.5h264.4c20.2 0 36.5 16.3 36.5 36.5z" fill="#F77490" p-id="6218"></path><path d="M573.7 647.3H405.9c-10.4 0-19-8.5-19-19 0-10.4 8.5-19 19-19h167.8c10.4 0 19 8.5 19 19s-8.6 19-19 19zM573.7 719.6H405.9c-10.4 0-19-8.5-19-19 0-10.4 8.5-19 19-19h167.8c10.4 0 19 8.5 19 19 0 10.4-8.6 19-19 19z" fill="#FDF17F" p-id="6219"></path><path d="M659.4 579v185c0 37.1-30.1 67.2-67.2 67.2h-40c37.1 0 67.2-30.1 67.2-67.2V579c0-20.2-16.3-36.5-36.5-36.5h40c20.2 0 36.5 16.3 36.5 36.5z" fill="#F65D73" p-id="6220"></path><path d="M592.7 700.6c0 5.2-2.1 10-5.6 13.4s-8.2 5.6-13.4 5.6h-40c5.2 0 10-2.1 13.4-5.6s5.6-8.2 5.6-13.4c0-10.4-8.5-19-19-19h40c10.4 0 19 8.6 19 19zM592.7 628.3c0 10.4-8.5 19-19 19h-40c10.4 0 19-8.5 19-19 0-10.4-8.5-19-19-19h40c10.4 0 19 8.6 19 19z" fill="#FAD672" p-id="6221"></path></svg>