<?xml version="1.0" standalone="no"?><!DOCTYPE svg PUBLIC "-//W3C//DTD SVG 1.1//EN" "http://www.w3.org/Graphics/SVG/1.1/DTD/svg11.dtd"><svg t="1598838048466" class="icon" viewBox="0 0 1024 1024" version="1.1" xmlns="http://www.w3.org/2000/svg" p-id="1572" width="32" height="32" xmlns:xlink="http://www.w3.org/1999/xlink"><defs><style type="text/css"></style></defs><path d="M512 93.090909c-231.377455 0-418.909091 187.531636-418.909091 418.909091s187.531636 418.909091 418.909091 418.909091 418.909091-187.531636 418.909091-418.909091S743.377455 93.090909 512 93.090909zM798.580364 399.639273l-329.122909 329.122909c-9.076364 9.076364-23.831273 9.076364-32.907636 0l-164.584727-164.584727c-9.076364-9.076364-9.076364-23.831273 0-32.907636 9.076364-9.076364 23.831273-9.076364 32.907636 0l148.107636 148.107636 312.645818-312.645818c9.076364-9.076364 23.831273-9.076364 32.907636 0C807.656727 375.808 807.656727 390.516364 798.580364 399.639273z" p-id="1573" fill="#1296db"></path></svg>